<?xml version="1.0"?>
<svg xmlns="http://www.w3.org/2000/svg" viewBox="0 0 50 50">
    <path style="line-height:normal;text-indent:0;text-align:start;text-decoration-line:none;text-decoration-style:solid;text-decoration-color:#000;text-transform:none;block-progression:tb;isolation:auto;mix-blend-mode:normal" d="M 36 0.5859375 L 23.585938 13 L 31 13 L 31 16 L 16 16 C 12.145666 16 9 19.145666 9 23 L 9 37 L 1.5859375 37 L 14 49.414062 L 26.414062 37 L 19 37 L 19 34 L 34 34 C 37.854334 34 41 30.854334 41 27 L 41 13 L 48.414062 13 L 46.707031 11.292969 L 36 0.5859375 z M 36 3.4140625 L 43.585938 11 L 39 11 L 39 27 C 39 29.773666 36.773666 32 34 32 L 19 32 L 19 26 L 33 26 L 33 25 L 33 16 L 33 11 L 28.414062 11 L 36 3.4140625 z M 16 18 L 31 18 L 31 24 L 17 24 L 17 34 L 17 39 L 21.585938 39 L 14 46.585938 L 6.4140625 39 L 11 39 L 11 23 C 11 20.226334 13.226334 18 16 18 z" font-weight="400" font-family="sans-serif" white-space="normal" overflow="visible"/>
</svg>
